<?xml version='1.0' encoding='iso-8859-1'?>
<!-- Uploaded to: SVG Repo, www.svgrepo.com, Generator: SVG Repo Mixer Tools -->
<svg fill="#000000" height="800px" width="800px" version="1.1" xmlns="http://www.w3.org/2000/svg" viewBox="0 0 296 296" xmlns:xlink="http://www.w3.org/1999/xlink" enable-background="new 0 0 296 296">
  <path d="m296,115.073h-15.977c-3.342-12-11.804-19.924-20.129-22.584-19.479-6.226-36.227,5.847-39.969,21.446-3.732-15.6-20.483-27.56-39.958-21.333-5.316,1.699-10.687,5.627-14.749,11.354-4.271-3.639-9.748-5.883-15.725-5.883-0.056,0-0.275,0-0.33,0-5.978,0-11.454,2.264-15.726,5.902-4.063-5.727-9.433-9.651-14.749-11.351-19.475-6.227-36.227,5.779-39.958,21.379-3.741-15.6-20.49-27.745-39.969-21.519-8.324,2.662-16.786,10.588-20.127,22.588h-18.634v16h17.424c2.187,20 17.884,46.49 61.167,74.109 48.157-30.732 61.409-58.971 61.409-80.413v-1.599c0-4.899 4.41-9.097 9.308-9.097 0.007,0 0.034,0 0.041,0 4.897,0 8.651,4.197 8.651,9.097v1.599c0,21.859 13.58,49.682 61.738,80.412 43.281-27.617 59.311-54.107 61.497-74.107h14.765v-16z"/>
</svg>